<svg width="120" height="25" viewBox="0 0 120 25" fill="none" xmlns="http://www.w3.org/2000/svg">
<path fill-rule="evenodd" clip-rule="evenodd" d="M39.5753 24.4751V0.524935L44.3984 0V8.07089C45.5216 6.10236 48.6268 4.98688 50.675 4.98688C56.2908 4.98688 60.4533 8.39895 60.4533 14.9606C60.4533 21.1942 56.1587 24.9344 50.5428 24.9344C48.1643 24.9344 45.7858 24.147 44.3323 21.8504L44.002 24.4751H39.5753ZM55.6962 14.895C55.6962 11.4173 53.2517 9.31758 50.2124 9.31758C47.2394 9.31758 44.6627 11.5485 44.6627 14.895C44.6627 18.3071 47.2394 20.4724 50.2124 20.4724C53.2517 20.4724 55.6962 18.2415 55.6962 14.895ZM72.8747 4.92108C75.4513 4.92108 77.8959 6.10218 79.0191 8.00507L79.2174 5.3804H83.776V24.4093H79.2834L79.0191 21.6533C77.962 23.8843 74.9228 24.9342 72.8086 24.9998C67.1267 25.0654 62.8982 21.5878 62.8982 14.8949C62.8982 8.33317 67.2588 4.85546 72.8747 4.92108ZM67.6552 14.8949C67.6552 18.5037 70.1658 20.6691 73.3371 20.6691C80.803 20.6691 80.803 9.12059 73.3371 9.12059C70.1658 9.12059 67.6552 11.2859 67.6552 14.8949ZM87.2771 0.524935V17.7165C87.2771 22.5065 89.9863 24.8031 94.1482 24.6719C95.6018 24.6063 96.7252 24.4094 98.1122 23.8845L96.7909 19.8819C96.0641 20.21 95.2051 20.4724 94.4783 20.4724C93.0256 20.4724 91.9679 19.5538 91.9679 17.7822V9.44879H97.3197V5.44619H92.0344V0L87.2771 0.524935ZM110.204 4.78992C116.613 4.78992 120.643 8.72689 119.916 16.6009H104.918C105.249 18.9632 107.297 20.6692 110.666 20.6692C112.45 20.6692 114.696 20.013 115.82 18.8975L118.859 21.8503C116.811 23.95 113.507 24.9343 110.6 24.9343C103.993 24.9343 100.029 20.866 100.029 14.7637C100.029 8.98939 103.993 4.78992 110.204 4.78992ZM110.402 8.92375C107.825 8.92375 105.777 10.1705 105.05 12.6639H115.357C115.093 10.1705 113.111 8.92375 110.402 8.92375Z" fill="black"/>
<path fill-rule="evenodd" clip-rule="evenodd" d="M26.2298 4.79004C32.6386 4.79004 36.6688 8.72702 35.942 16.601H20.9443C21.2747 18.9633 23.3228 20.6693 26.6924 20.6693C28.4762 20.6693 30.7226 20.0131 31.8457 18.8977L34.885 21.8504C32.8368 23.9502 29.5334 24.9344 26.6263 24.9344C20.0193 24.9344 16.0552 20.8661 16.0552 14.7638C16.0552 8.98952 20.0193 4.79004 26.2298 4.79004ZM26.362 8.92387C23.7853 8.92387 21.7371 10.1706 21.0104 12.664H31.3172C31.0529 10.1706 29.0708 8.92387 26.362 8.92387ZM0 24.4751V5.38064H4.42664L4.75698 7.54599C6.21051 5.18379 8.25864 4.85571 10.1747 4.85571C12.1567 4.85571 14.0728 5.64311 15.1298 6.69298L13.0156 10.7612C12.0246 9.90821 11.1657 9.5145 9.58006 9.5145C7.06941 9.5145 4.75698 10.8268 4.75698 14.3701V24.4751H0Z" fill="#55AA17"/>
</svg>
